<?xml version="1.0" standalone="no"?>
<!DOCTYPE svg PUBLIC "-//W3C//DTD SVG 20010904//EN"
 "http://www.w3.org/TR/2001/REC-SVG-20010904/DTD/svg10.dtd">
<svg version="1.0" xmlns="http://www.w3.org/2000/svg"
 width="784.000000pt" height="784.000000pt" viewBox="0 0 784.000000 784.000000"
 preserveAspectRatio="xMidYMid meet">
<metadata>
Created by potrace 1.14, written by Peter Selinger 2001-2017
</metadata>
<g transform="translate(0.000000,784.000000) scale(0.100000,-0.100000)"
fill="#000000" stroke="none">
<path d="M2 6914 c6 -9 55 -114 108 -229 15 -33 45 -98 68 -145 22 -47 61
-130 87 -185 26 -55 61 -129 78 -165 17 -36 32 -67 33 -70 6 -30 23 -44 64
-55 3 -1 13 -5 23 -8 9 -4 25 -10 35 -14 9 -3 19 -7 22 -8 19 -4 87 -29 95
-34 6 -3 15 -6 20 -7 9 -2 215 -75 260 -93 11 -4 36 -13 55 -20 19 -7 98 -35
175 -62 77 -28 154 -55 170 -61 17 -5 39 -13 50 -18 33 -14 219 -82 235 -86 8
-1 60 -20 115 -40 143 -52 310 -112 540 -194 110 -40 220 -79 245 -88 25 -9
47 -17 50 -18 6 -1 37 -12 70 -26 14 -5 45 -17 70 -25 25 -8 173 -61 330 -118
157 -56 302 -108 322 -115 21 -6 40 -15 43 -20 3 -5 6 -142 6 -304 l1 -296 47
-1 c108 -2 306 3 310 7 3 2 4 185 2 406 -1 298 -5 404 -14 410 -6 4 -45 19
-87 34 -77 27 -495 177 -610 219 -36 13 -204 74 -375 135 -170 62 -350 127
-400 145 -49 18 -155 56 -235 85 -137 49 -175 62 -302 109 -29 11 -111 41
-183 66 -144 52 -271 98 -480 175 -77 28 -147 53 -155 55 -8 2 -17 4 -20 5 -3
1 -8 2 -12 1 -5 0 -8 3 -8 7 0 4 -8 9 -17 10 -10 0 -58 16 -108 35 -89 33 -90
34 -117 88 -52 102 -168 351 -168 360 0 5 -10 9 -23 9 -13 0 -27 4 -32 9 -6 5
-39 19 -75 31 -36 12 -72 24 -80 27 -8 4 -17 7 -20 8 -3 1 -12 4 -20 7 -8 3
-46 17 -85 31 -38 14 -79 29 -89 33 -11 4 -17 4 -14 -2z"/>
<path d="M7805 6908 c-16 -5 -44 -16 -62 -24 -17 -8 -36 -14 -42 -14 -6 0 -19
-4 -29 -9 -14 -8 -166 -63 -182 -67 -3 0 -18 -6 -35 -13 -16 -6 -36 -14 -43
-16 -7 -3 -15 -13 -18 -22 -3 -10 -10 -25 -15 -33 -5 -8 -14 -26 -20 -40 -18
-42 -92 -201 -124 -264 l-30 -60 -110 -39 c-60 -21 -119 -43 -130 -47 -11 -5
-42 -16 -70 -25 -27 -10 -63 -23 -80 -30 -16 -7 -64 -24 -105 -38 -41 -14
-181 -65 -310 -112 -129 -48 -239 -87 -245 -88 -5 -2 -23 -8 -40 -14 -111 -44
-588 -213 -600 -213 -8 0 -15 -4 -15 -8 0 -5 -6 -9 -12 -9 -7 -1 -51 -15 -98
-32 -47 -18 -89 -34 -95 -35 -5 -2 -17 -6 -25 -9 -19 -8 -132 -48 -145 -51 -5
-2 -17 -6 -25 -9 -19 -8 -167 -62 -335 -122 -71 -25 -146 -53 -165 -61 -20 -8
-42 -16 -50 -18 -8 -2 -22 -6 -30 -9 -8 -4 -67 -25 -130 -48 -63 -22 -144 -51
-180 -64 -36 -13 -73 -26 -82 -29 -16 -5 -18 -25 -19 -223 -1 -474 -1 -559 0
-583 l1 -25 108 2 c59 1 139 2 179 2 l72 1 0 273 c0 149 0 286 1 303 0 26 5
33 28 38 15 4 83 28 151 53 68 25 129 46 135 48 6 1 18 5 26 8 8 4 67 25 130
47 63 23 124 45 135 50 11 4 56 21 100 36 44 15 91 32 105 37 14 6 30 11 35
13 19 5 624 222 645 231 8 3 17 7 20 7 3 1 39 14 80 29 41 15 113 41 160 57
198 71 403 145 520 186 69 25 148 53 175 64 28 10 140 51 250 90 110 39 219
78 242 87 36 13 45 23 69 77 15 33 60 130 101 214 40 84 73 154 73 156 0 2 25
57 56 122 74 156 133 284 131 283 -1 0 -15 -5 -32 -11z"/>
<path d="M600 5655 c0 -4 13 -34 29 -68 58 -125 213 -454 241 -512 16 -33 44
-94 63 -135 19 -41 60 -127 90 -190 30 -63 66 -140 80 -170 14 -30 46 -100 72
-155 59 -125 116 -246 166 -352 21 -46 43 -83 49 -83 6 0 117 -39 248 -86 130
-47 269 -97 307 -110 39 -14 93 -34 120 -44 28 -11 62 -22 78 -26 15 -3 29
-10 32 -14 2 -4 -42 -29 -98 -55 -56 -26 -151 -71 -212 -100 -60 -29 -136 -64
-167 -79 -32 -15 -58 -29 -58 -31 0 -6 37 -89 97 -215 33 -69 77 -163 98 -210
22 -47 49 -103 60 -125 l20 -40 178 0 c97 0 177 2 177 6 0 7 -31 74 -138 300
-67 143 -71 125 28 167 25 11 65 29 90 40 25 11 106 46 180 77 74 31 153 65
175 75 l40 18 3 -342 2 -342 180 0 180 0 0 972 0 971 -42 16 c-24 8 -108 39
-188 67 -80 28 -152 54 -160 57 -8 3 -19 7 -25 9 -18 4 -519 185 -540 194 -20
9 -161 59 -180 64 -12 4 -39 13 -85 31 -19 8 -75 28 -125 45 -49 17 -97 33
-105 37 -17 6 -209 75 -345 123 -49 17 -99 35 -110 40 -11 5 -49 19 -85 30
-36 12 -74 26 -85 31 -11 5 -84 31 -162 59 -78 27 -148 53 -157 56 -9 3 -16 3
-16 -1z m830 -637 c240 -87 253 -91 395 -142 72 -26 139 -51 150 -56 11 -5 49
-18 85 -30 35 -12 69 -24 75 -28 5 -4 16 -7 24 -8 7 -2 36 -12 65 -22 28 -11
135 -51 239 -88 l187 -67 0 -344 c0 -189 -2 -343 -5 -343 -5 0 -433 151 -510
180 -117 44 -221 81 -235 84 -9 2 -58 20 -110 39 -52 19 -113 41 -134 48 -36
13 -43 21 -81 104 -24 50 -60 126 -81 170 -21 44 -39 82 -39 85 -1 3 -25 55
-54 115 -29 61 -75 160 -103 220 -28 61 -55 114 -59 120 -16 17 -10 38 9 30 9
-4 91 -34 182 -67z"/>
<path d="M7185 5642 c-22 -7 -56 -20 -75 -27 -59 -23 -244 -89 -255 -91 -5 -2
-73 -26 -150 -54 -77 -29 -144 -53 -150 -54 -5 -1 -27 -10 -49 -19 -21 -9 -41
-17 -45 -17 -3 0 -94 -32 -201 -71 -107 -39 -202 -72 -210 -74 -8 -2 -103 -36
-210 -76 -107 -39 -199 -72 -205 -74 -5 -1 -22 -7 -36 -13 -15 -6 -62 -23
-105 -38 -44 -14 -108 -38 -144 -51 -36 -14 -69 -26 -75 -27 -5 -2 -17 -6 -25
-9 -17 -7 -79 -29 -160 -57 -30 -10 -99 -35 -154 -54 -54 -20 -100 -36 -102
-36 -2 0 -4 -438 -4 -973 l0 -973 178 0 177 1 5 342 5 342 30 -14 c17 -8 138
-61 270 -117 132 -57 247 -108 256 -113 17 -11 23 3 -123 -302 -32 -68 -58
-126 -58 -131 0 -6 315 -9 353 -3 4 0 18 25 31 54 13 28 45 97 71 152 104 220
119 252 146 313 16 35 29 66 29 68 0 3 -164 84 -180 89 -9 2 -75 33 -195 90
-66 31 -131 62 -145 67 l-25 10 25 11 c60 25 95 38 260 96 96 34 191 69 210
76 19 8 98 36 174 63 l140 50 37 78 c74 161 146 313 235 499 21 44 39 82 39
85 1 3 21 46 44 95 80 167 111 235 111 244 0 5 6 14 14 20 8 7 17 22 20 35 3
13 32 79 65 147 119 250 151 320 151 329 0 6 5 10 12 10 6 0 9 3 5 6 -3 3 2
20 12 37 40 72 36 81 -24 59z m-575 -561 c0 -6 -40 -94 -90 -197 -49 -102 -90
-187 -90 -189 0 -1 -29 -63 -64 -137 -35 -73 -82 -172 -104 -219 -38 -83 -41
-86 -88 -102 -46 -15 -199 -70 -289 -103 -22 -8 -44 -16 -50 -18 -5 -2 -19 -6
-30 -10 -43 -17 -50 -19 -60 -22 -5 -1 -122 -43 -260 -92 -137 -50 -260 -93
-272 -97 l-23 -6 0 344 0 344 118 42 c64 24 187 68 272 98 85 30 173 62 195
72 21 9 42 16 45 17 3 0 12 3 20 6 20 8 406 146 445 160 17 5 39 14 50 19 33
14 198 71 223 76 12 3 25 9 28 14 7 12 24 11 24 0z"/>
<path d="M3371 3249 c1 -424 -2 -773 -6 -777 -3 -4 -288 -7 -633 -7 -395 -1
-626 -4 -625 -10 1 -10 42 -98 129 -282 24 -51 47 -93 51 -94 42 -4 1427 -2
1435 2 6 4 10 355 11 973 l2 966 -182 0 -182 0 0 -771z"/>
<path d="M4109 3993 c-4 -116 0 -1906 5 -1910 3 -4 328 -7 722 -7 706 -1 717
-1 730 19 7 11 32 63 56 115 23 52 46 97 50 98 5 2 8 9 8 15 0 7 13 40 30 75
16 34 28 63 27 63 -1 1 -284 2 -629 3 -345 1 -630 4 -633 7 -3 4 -6 353 -6
778 l-1 771 -179 0 -179 0 -1 -27z"/>
<path d="M2473 1669 c1 -10 4 -19 8 -19 4 0 11 -10 15 -22 3 -12 31 -74 61
-137 31 -64 68 -143 83 -176 15 -33 55 -118 89 -190 34 -71 70 -147 79 -167
l17 -37 182 -1 183 0 -23 48 c-12 26 -25 49 -29 50 -5 2 -8 9 -8 16 0 7 -15
44 -34 82 -18 38 -43 92 -56 119 -12 28 -24 53 -27 57 -2 4 406 7 907 7 501 0
909 -3 906 -7 -13 -21 -76 -165 -76 -173 0 -5 -4 -9 -10 -9 -5 0 -10 -5 -10
-12 0 -6 -16 -44 -35 -85 -19 -41 -35 -78 -35 -84 0 -6 66 -8 177 -7 l178 3
26 53 c15 28 24 52 20 52 -3 0 -1 4 4 8 6 4 26 41 45 82 35 77 92 198 199 424
33 70 61 132 61 137 0 4 -652 8 -1449 8 -1421 -1 -1450 -1 -1448 -20z"/>
</g>
</svg>
